<svg width="32" height="32" viewBox="0 0 32 32" fill="none" xmlns="http://www.w3.org/2000/svg">
<path d="M15.9947 1.712C12.5141 1.70907 9.14616 2.94563 6.49439 5.20012C3.84263 7.45461 2.0803 10.5797 1.52319 14.0154C0.966083 17.4511 1.65059 20.973 3.45408 23.9499C5.25756 26.9268 8.06215 29.1643 11.3653 30.2613C12.096 30.388 12.328 29.9587 12.328 29.572C12.328 29.2213 12.336 28.2507 12.328 27.0253C8.252 27.908 7.41067 25.0947 7.41067 25.0947C7.14164 24.2091 6.56464 23.4491 5.784 22.952C4.45467 22.0427 5.884 22.06 5.884 22.06C6.34819 22.1238 6.79166 22.2929 7.18056 22.5542C7.56947 22.8156 7.89352 23.1623 8.128 23.568C8.32642 23.9294 8.59447 24.2478 8.91668 24.5049C9.23889 24.7621 9.60887 24.9528 10.0052 25.0662C10.4016 25.1795 10.8165 25.2131 11.2259 25.1651C11.6354 25.1172 12.0312 24.9885 12.3907 24.7867C12.4579 24.046 12.7875 23.3538 13.32 22.8347C10.068 22.4627 6.648 21.208 6.648 15.592C6.62734 14.1365 7.16783 12.7289 8.15734 11.6613C7.70901 10.3984 7.76004 9.0119 8.3 7.78534C8.3 7.78534 9.532 7.392 12.3267 9.28934C14.7281 8.63066 17.2626 8.63066 19.664 9.28934C22.4667 7.39334 23.688 7.78534 23.688 7.78534C24.228 9.012 24.28 10.3987 23.8333 11.6613C24.8231 12.7296 25.3628 14.1385 25.34 15.5947C25.34 21.2253 21.9147 22.4613 18.652 22.8213C19.0028 23.1736 19.2738 23.597 19.4468 24.0631C19.6198 24.5291 19.6907 25.0269 19.6547 25.5227V29.5773C19.6547 29.9693 19.8907 30.4027 20.6347 30.26C23.9377 29.1619 26.7418 26.9235 28.5444 23.9458C30.347 20.9681 31.0304 17.4458 30.4719 14.01C29.9135 10.5743 28.1499 7.44972 25.497 5.19619C22.8441 2.94266 19.4755 1.70749 15.9947 1.712Z" fill="black"/>
</svg>
