<svg width="50" height="50" viewBox="0 0 50 50" fill="none" xmlns="http://www.w3.org/2000/svg">
<path fill-rule="evenodd" clip-rule="evenodd" d="M2.08333 25C2.08333 12.3438 12.3437 2.08337 25 2.08337C37.6562 2.08337 47.9167 12.3438 47.9167 25C47.9167 37.6563 37.6562 47.9167 25 47.9167C20.9667 47.9167 17.1729 46.875 13.8792 45.0417L2.91666 47.0834L4.95833 36.1209C3.06733 32.7198 2.07763 28.8915 2.08333 25ZM14.8896 13.848C16.2521 12.4834 18.0708 12.3625 19.0521 12.4105C19.9583 12.4521 20.6687 12.9771 21.1021 13.5855L23.0854 16.3646C23.5151 16.9665 23.7174 17.7012 23.6563 18.4382C23.5953 19.1752 23.2749 19.8666 22.7521 20.3896L21.3479 21.7917C21.8125 22.925 22.7437 24.75 23.9979 26.0021C25.2521 27.2542 27.075 28.1896 28.2062 28.6542L29.6125 27.25C30.1354 26.7278 30.8264 26.4077 31.5629 26.3467C32.2994 26.2856 33.0337 26.4876 33.6354 26.9167L36.4167 28.898C37.0229 29.3334 37.55 30.0438 37.5917 30.948C37.6375 31.9292 37.5167 33.748 36.1542 35.1125C33.9312 37.3334 30.4437 37.3563 27.2708 36.4855C24.0417 35.598 20.75 33.6938 18.5271 31.473C16.3083 29.2521 14.4021 25.9605 13.5146 22.7292C12.6437 19.5563 12.6667 16.0688 14.8896 13.848Z" fill="black"/>
</svg>
