<svg width="32" height="32" viewBox="0 0 32 32" fill="none" xmlns="http://www.w3.org/2000/svg">
<path fill-rule="evenodd" clip-rule="evenodd" d="M4.66667 8C5.55072 8 6.39857 7.64881 7.02369 7.02368C7.64881 6.39856 8 5.55072 8 4.66666C8 3.78261 7.64881 2.93476 7.02369 2.30964C6.39857 1.68452 5.55072 1.33333 4.66667 1.33333C3.78261 1.33333 2.93477 1.68452 2.30965 2.30964C1.68453 2.93476 1.33334 3.78261 1.33334 4.66666C1.33334 5.55072 1.68453 6.39856 2.30965 7.02368C2.93477 7.64881 3.78261 8 4.66667 8ZM8 30.6667V10.6667H1.33334V30.6667H8ZM10.6667 10.6667H16.6667V13.2613C17.6213 12.0067 19.6613 10.6667 23.3333 10.6667C29.1067 10.6667 30.6667 16.4267 30.6667 20V30.6667H24V20C24 18.6667 23.3333 16 20.6667 16C18.7733 16 17.44 17.344 16.6667 18.6013V30.6667H10.6667V10.6667Z" fill="black"/>
</svg>
