<svg width="287" height="348" viewBox="0 0 287 348" fill="none" xmlns="http://www.w3.org/2000/svg">
<path d="M109.5 0H0V250C0 250 57.0902 234.917 68 205C74.2884 187.756 63.6923 175.842 68 158C76.54 122.628 120.832 123.341 129.5 88C137.895 53.7719 109.5 0 109.5 0Z" fill="#00B4D8"/>
<path d="M109.5 0C109.5 0 137.895 53.7719 129.5 88C120.832 123.341 76.54 122.628 68 158C63.6923 175.842 74.2884 187.756 68 205C57.0902 234.917 0 250 0 250V294.5C0 294.5 18.7525 296.467 30.5 294.5C60.682 289.447 69.9547 267.585 95 250C119.745 232.627 152.332 234.699 158 205C161.561 186.344 145.272 176.991 145.5 158C145.988 117.304 201.653 113.91 206.5 73.5C210.02 44.1586 188.5 0 188.5 0H109.5Z" fill="#48CAE4"/>
<path d="M188.5 0C188.5 0 210.02 44.1586 206.5 73.5C201.653 113.91 145.988 117.304 145.5 158C145.272 176.991 161.561 186.344 158 205C152.332 234.699 119.745 232.627 95 250C69.9547 267.585 60.682 289.447 30.5 294.5C18.7525 296.467 0 294.5 0 294.5V345C0 345 42.0815 350.782 68 345C101.798 337.46 115.803 319.723 145.5 301.913C183.801 278.944 232.998 282.938 241 239C245.261 215.601 225.55 203.158 228 179.5C231.93 141.545 277.686 137.849 285.5 100.5C293.782 60.9134 260.5 0 260.5 0H188.5Z" fill="#90E0EF"/>
</svg>
