<svg width="287" height="348" viewBox="0 0 287 348" fill="none" xmlns="http://www.w3.org/2000/svg">
<path d="M177.324 347.57H286.824L286.824 97.5701C286.824 97.5701 229.734 112.653 218.824 142.57C212.536 159.814 223.132 171.728 218.824 189.57C210.284 224.942 165.992 224.229 157.324 259.57C148.929 293.798 177.324 347.57 177.324 347.57Z" fill="#00B4D8"/>
<path d="M177.324 347.57C177.324 347.57 148.929 293.798 157.324 259.57C165.992 224.229 210.284 224.942 218.824 189.57C223.132 171.728 212.536 159.814 218.824 142.57C229.734 112.653 286.824 97.5701 286.824 97.5701V53.0701C286.824 53.0701 268.072 51.1035 256.324 53.0701C226.142 58.1226 216.869 79.9855 191.824 97.5701C167.079 114.944 134.493 112.871 128.824 142.57C125.263 161.226 141.552 170.579 141.324 189.57C140.836 230.267 85.1713 233.66 80.3241 274.07C76.8045 303.411 98.3241 347.57 98.3241 347.57H177.324Z" fill="#48CAE4"/>
<path d="M98.3241 347.57C98.3241 347.57 76.8045 303.411 80.3241 274.07C85.1713 233.66 140.836 230.267 141.324 189.57C141.552 170.579 125.263 161.226 128.824 142.57C134.493 112.871 167.079 114.944 191.824 97.5701C216.869 79.9855 226.142 58.1226 256.324 53.0701C268.072 51.1035 286.824 53.0701 286.824 53.0701V2.57007C286.824 2.57007 244.743 -3.21231 218.824 2.57007C185.026 10.1103 171.022 27.8469 141.324 45.6569C103.023 68.6265 53.8259 64.6322 45.8241 108.57C41.5627 131.97 61.2739 144.412 58.8241 168.07C54.8938 206.025 9.13843 209.721 1.3241 247.07C-6.95828 286.657 26.3241 347.57 26.3241 347.57L98.3241 347.57Z" fill="#90E0EF"/>
</svg>
